<?xml version="1.0" encoding="UTF-8" standalone="no"?>
<svg width="64" height="64" viewBox="0 0 64 64" fill="none" xmlns="http://www.w3.org/2000/svg">
  <!-- Dark metal base -->
  <rect width="64" height="64" fill="#333333"/>
  
  <!-- Pixel art metal texture pattern -->
  <rect x="0" y="0" width="8" height="8" fill="#3A3A3A"/>
  <rect x="16" y="0" width="8" height="8" fill="#3A3A3A"/>
  <rect x="32" y="0" width="8" height="8" fill="#3A3A3A"/>
  <rect x="48" y="0" width="8" height="8" fill="#3A3A3A"/>
  
  <rect x="8" y="8" width="8" height="8" fill="#3A3A3A"/>
  <rect x="24" y="8" width="8" height="8" fill="#3A3A3A"/>
  <rect x="40" y="8" width="8" height="8" fill="#3A3A3A"/>
  <rect x="56" y="8" width="8" height="8" fill="#3A3A3A"/>
  
  <rect x="0" y="16" width="8" height="8" fill="#3A3A3A"/>
  <rect x="16" y="16" width="8" height="8" fill="#3A3A3A"/>
  <rect x="32" y="16" width="8" height="8" fill="#3A3A3A"/>
  <rect x="48" y="16" width="8" height="8" fill="#3A3A3A"/>
  
  <rect x="8" y="24" width="8" height="8" fill="#3A3A3A"/>
  <rect x="24" y="24" width="8" height="8" fill="#3A3A3A"/>
  <rect x="40" y="24" width="8" height="8" fill="#3A3A3A"/>
  <rect x="56" y="24" width="8" height="8" fill="#3A3A3A"/>
  
  <rect x="0" y="32" width="8" height="8" fill="#3A3A3A"/>
  <rect x="16" y="32" width="8" height="8" fill="#3A3A3A"/>
  <rect x="32" y="32" width="8" height="8" fill="#3A3A3A"/>
  <rect x="48" y="32" width="8" height="8" fill="#3A3A3A"/>
  
  <rect x="8" y="40" width="8" height="8" fill="#3A3A3A"/>
  <rect x="24" y="40" width="8" height="8" fill="#3A3A3A"/>
  <rect x="40" y="40" width="8" height="8" fill="#3A3A3A"/>
  <rect x="56" y="40" width="8" height="8" fill="#3A3A3A"/>
  
  <rect x="0" y="48" width="8" height="8" fill="#3A3A3A"/>
  <rect x="16" y="48" width="8" height="8" fill="#3A3A3A"/>
  <rect x="32" y="48" width="8" height="8" fill="#3A3A3A"/>
  <rect x="48" y="48" width="8" height="8" fill="#3A3A3A"/>
  
  <rect x="8" y="56" width="8" height="8" fill="#3A3A3A"/>
  <rect x="24" y="56" width="8" height="8" fill="#3A3A3A"/>
  <rect x="40" y="56" width="8" height="8" fill="#3A3A3A"/>
  <rect x="56" y="56" width="8" height="8" fill="#3A3A3A"/>
  
  <!-- Horizontal rollers -->
  <rect x="0" y="12" width="64" height="4" fill="#555555"/>
  <rect x="0" y="44" width="64" height="4" fill="#555555"/>
  
  <!-- Highlights on rollers -->
  <rect x="0" y="12" width="64" height="1" fill="#777777"/>
  <rect x="0" y="44" width="64" height="1" fill="#777777"/>
  
  <!-- Roller connectors -->
  <rect x="4" y="16" width="2" height="28" fill="#444444"/>
  <rect x="20" y="16" width="2" height="28" fill="#444444"/>
  <rect x="36" y="16" width="2" height="28" fill="#444444"/>
  <rect x="52" y="16" width="2" height="28" fill="#444444"/>
  
  <!-- Edge details -->
  <rect x="0" y="0" width="64" height="2" fill="#222222"/>
  <rect x="0" y="62" width="64" height="2" fill="#222222"/>
  <rect x="0" y="0" width="2" height="64" fill="#222222"/>
  <rect x="62" y="0" width="2" height="64" fill="#222222"/>
</svg>
